# xmcd CD database file
#
# Track frame offsets:
#	150
#	30557
#	55555
#	79770
#	105690
#	139335
#	163422
#	186274
#	216071
#	245378
#
# Disc length: 3625 seconds
#
# Revision: 0
# Processed by: cddbd v1.4PL0 Copyright (c) Steve Scherf et al.
# Submitted via: CDex 1.50beta9
#
DISCID=870e270a
DTITLE=Sonic Tribe - Spirit Rising
DYEAR=2002
DGENRE=New Age
TTITLE0=Into Twilight
TTITLE1=Chakra Dance
TTITLE2=Spirit Rising
TTITLE3=As The Eagle Flies
TTITLE4=Wayo
TTITLE5=Giulelle Mama
TTITLE6=Celebration
TTITLE7=Mirage
TTITLE8=Freedom Is Only A Door
TTITLE9=Out Of The Ashes
EXTD=YEAR: 2002
EXTT0=
EXTT1=
EXTT2=
EXTT3=
EXTT4=
EXTT5=
EXTT6=
EXTT7=
EXTT8=
EXTT9=
PLAYORDER=
